<svg xmlns="http://www.w3.org/2000/svg" width="30" height="30" viewBox="0 0 30 30">
  <g id="Component_21" data-name="Component 21" transform="translate(-35)">
    <g id="Group_93" data-name="Group 93" transform="translate(35)">
      <g id="Path_999" data-name="Path 999" fill="#020f59">
        <path d="M 29.5 29.5 L 0.5 29.5 L 0.5 0.5 L 29.5 0.5 L 29.5 29.5 Z" stroke="none"/>
        <path d="M 1 1 L 1 29 L 29 29 L 29 1 L 1 1 M 0 0 L 30 0 L 30 30 L 0 30 L 0 0 Z" stroke="none" fill="#fff"/>
      </g>
      <g id="Symbol_85_1" data-name="Symbol 85 – 1" transform="translate(9.091 8.091)">
        <path id="Union_3" data-name="Union 3" d="M7,8.273,1.273,14,0,12.727,5.727,7,0,1.272,1.273,0,7,5.727,12.727,0,14,1.272,8.272,7,14,12.727,12.727,14Z" fill="#fff"/>
      </g>
    </g>
  </g>
</svg>
