<svg id="visibility-24px" xmlns="http://www.w3.org/2000/svg" width="30" height="30" viewBox="0 0 30 30">
  <path id="Path_1" data-name="Path 1" d="M0,0H30V30H0Z" fill="#16276d"/>
  <path id="Path_2" data-name="Path 2" d="M15,4.5C8.636,4.5,3.2,8.854,1,15c2.2,6.146,7.636,10.5,14,10.5S26.8,21.146,29,15C26.8,8.854,21.364,4.5,15,4.5ZM15,22c-3.513,0-6.364-3.136-6.364-7S11.487,8,15,8s6.364,3.136,6.364,7S18.513,22,15,22Zm0-11.2A4.017,4.017,0,0,0,11.182,15,4.017,4.017,0,0,0,15,19.2,4.017,4.017,0,0,0,18.818,15,4.017,4.017,0,0,0,15,10.8Z" transform="translate(0 0)" fill="#fff"/>
</svg>
